<mxfile modified="2021-03-17T10:36:41.736Z" host="app.diagrams.net" agent="5.0 (Windows NT 10.0; Win64; x64) AppleWebKit/537.36 (KHTML, like Gecko) Chrome/88.0.4324.190 Safari/537.36" etag="SnGWp0BFdAtMLU1aHiHZ" version="14.4.8" type="github">
  <diagram id="Ht1M8jgEwFfnCIfOTk4-" name="Page-1">
    <mxGraphModel dx="1011" dy="579" grid="1" gridSize="10" guides="1" tooltips="1" connect="1" arrows="1" fold="1" page="1" pageScale="1" pageWidth="1169" pageHeight="827" background="none" math="0" shadow="0">
      <root>
        <mxCell id="0" />
        <mxCell id="1" parent="0" />
        <mxCell id="UEzPUAAOIrF-is8g5C7q-89" value="" style="edgeStyle=orthogonalEdgeStyle;rounded=0;orthogonalLoop=1;jettySize=auto;html=1;endArrow=open;endFill=0;strokeWidth=2;" parent="1" edge="1">
          <mxGeometry relative="1" as="geometry">
            <Array as="points">
              <mxPoint x="241" y="349.88" />
            </Array>
            <mxPoint x="240" y="259.88" as="sourcePoint" />
            <mxPoint x="380" y="350" as="targetPoint" />
          </mxGeometry>
        </mxCell>
        <mxCell id="48qMk-_mbrMQJ_Q1BjIE-11" value="Belgium deployment process" style="text;html=1;strokeColor=none;fillColor=none;align=center;verticalAlign=middle;whiteSpace=wrap;rounded=0;fontFamily=Times New Roman;fontSize=22;" vertex="1" parent="1">
          <mxGeometry x="430" y="10" width="290" height="30" as="geometry" />
        </mxCell>
        <mxCell id="48qMk-_mbrMQJ_Q1BjIE-12" value="" style="verticalLabelPosition=bottom;html=1;verticalAlign=top;align=center;strokeColor=#C73500;fillColor=#fa6800;shape=mxgraph.azure.git_repository;fontFamily=Times New Roman;fontSize=22;fontColor=#ffffff;" vertex="1" parent="1">
          <mxGeometry x="180" y="134" width="90" height="84" as="geometry" />
        </mxCell>
        <mxCell id="48qMk-_mbrMQJ_Q1BjIE-22" value="commit to any branch" style="text;html=1;strokeColor=none;fillColor=none;align=center;verticalAlign=middle;whiteSpace=wrap;rounded=0;fontFamily=Verdana;fontSize=16;" vertex="1" parent="1">
          <mxGeometry x="170" y="220" width="121" height="36" as="geometry" />
        </mxCell>
        <mxCell id="48qMk-_mbrMQJ_Q1BjIE-73" value="" style="edgeStyle=orthogonalEdgeStyle;rounded=0;orthogonalLoop=1;jettySize=auto;html=1;fontFamily=Times New Roman;fontSize=16;" edge="1" parent="1" source="48qMk-_mbrMQJ_Q1BjIE-23" target="48qMk-_mbrMQJ_Q1BjIE-72">
          <mxGeometry relative="1" as="geometry" />
        </mxCell>
        <mxCell id="48qMk-_mbrMQJ_Q1BjIE-23" value="" style="rounded=0;whiteSpace=wrap;html=1;fontFamily=Verdana;fontSize=16;fillColor=#dae8fc;strokeColor=#6c8ebf;" vertex="1" parent="1">
          <mxGeometry x="650" y="120" width="160" height="90" as="geometry" />
        </mxCell>
        <mxCell id="48qMk-_mbrMQJ_Q1BjIE-70" value="" style="edgeStyle=orthogonalEdgeStyle;rounded=0;orthogonalLoop=1;jettySize=auto;html=1;fontFamily=Verdana;fontSize=16;" edge="1" parent="1" source="48qMk-_mbrMQJ_Q1BjIE-29" target="48qMk-_mbrMQJ_Q1BjIE-63">
          <mxGeometry relative="1" as="geometry" />
        </mxCell>
        <mxCell id="48qMk-_mbrMQJ_Q1BjIE-29" value="" style="rounded=0;whiteSpace=wrap;html=1;fontFamily=Verdana;fontSize=16;fillColor=#f8cecc;strokeColor=#b85450;" vertex="1" parent="1">
          <mxGeometry x="390" y="320" width="120" height="60" as="geometry" />
        </mxCell>
        <mxCell id="48qMk-_mbrMQJ_Q1BjIE-30" value="&lt;span style=&quot;font-family: &amp;#34;times new roman&amp;#34; ; font-size: 18px&quot;&gt;CI/CD (namespace)&amp;nbsp;&lt;/span&gt;" style="text;html=1;strokeColor=none;fillColor=none;align=center;verticalAlign=middle;whiteSpace=wrap;rounded=0;fontFamily=Verdana;fontSize=16;" vertex="1" parent="1">
          <mxGeometry x="425" y="340" width="55" height="20" as="geometry" />
        </mxCell>
        <mxCell id="48qMk-_mbrMQJ_Q1BjIE-34" value="&lt;font face=&quot;Times New Roman&quot; style=&quot;font-size: 22px&quot;&gt;Dev environment&lt;/font&gt;" style="text;html=1;strokeColor=none;fillColor=none;align=center;verticalAlign=middle;whiteSpace=wrap;rounded=0;fontFamily=Verdana;fontSize=16;" vertex="1" parent="1">
          <mxGeometry x="120.5" y="70" width="220" height="46" as="geometry" />
        </mxCell>
        <mxCell id="48qMk-_mbrMQJ_Q1BjIE-55" style="edgeStyle=orthogonalEdgeStyle;rounded=0;orthogonalLoop=1;jettySize=auto;html=1;entryX=0.57;entryY=1.039;entryDx=0;entryDy=0;entryPerimeter=0;fontFamily=Verdana;fontSize=16;" edge="1" parent="1" source="48qMk-_mbrMQJ_Q1BjIE-44" target="48qMk-_mbrMQJ_Q1BjIE-23">
          <mxGeometry relative="1" as="geometry" />
        </mxCell>
        <mxCell id="48qMk-_mbrMQJ_Q1BjIE-44" value="" style="rounded=0;whiteSpace=wrap;html=1;fontFamily=Verdana;fontSize=16;fillColor=#f8cecc;strokeColor=#b85450;" vertex="1" parent="1">
          <mxGeometry x="390" y="424" width="120" height="66" as="geometry" />
        </mxCell>
        <mxCell id="48qMk-_mbrMQJ_Q1BjIE-57" value="call &amp;amp; run Jenkins file&amp;nbsp;&amp;nbsp;" style="text;html=1;strokeColor=none;fillColor=none;align=center;verticalAlign=middle;whiteSpace=wrap;rounded=0;fontFamily=Verdana;fontSize=16;" vertex="1" parent="1">
          <mxGeometry x="520" y="414" width="190" height="56" as="geometry" />
        </mxCell>
        <mxCell id="48qMk-_mbrMQJ_Q1BjIE-63" value="Built config (pipeline)" style="text;html=1;strokeColor=none;fillColor=none;align=center;verticalAlign=middle;whiteSpace=wrap;rounded=0;fontFamily=Verdana;fontSize=16;" vertex="1" parent="1">
          <mxGeometry x="400" y="444" width="100" height="20" as="geometry" />
        </mxCell>
        <mxCell id="48qMk-_mbrMQJ_Q1BjIE-66" style="edgeStyle=orthogonalEdgeStyle;rounded=0;orthogonalLoop=1;jettySize=auto;html=1;exitX=0.5;exitY=1;exitDx=0;exitDy=0;fontFamily=Verdana;fontSize=16;" edge="1" parent="1">
          <mxGeometry relative="1" as="geometry">
            <mxPoint x="710" y="170" as="sourcePoint" />
            <mxPoint x="710" y="170" as="targetPoint" />
          </mxGeometry>
        </mxCell>
        <mxCell id="48qMk-_mbrMQJ_Q1BjIE-71" value="&lt;span style=&quot;font-size: 18px&quot;&gt;Dev (namespace) built config (S2I)&lt;/span&gt;" style="text;html=1;strokeColor=none;fillColor=none;align=center;verticalAlign=middle;whiteSpace=wrap;rounded=0;fontFamily=Times New Roman;fontSize=16;" vertex="1" parent="1">
          <mxGeometry x="660" y="155" width="140" height="20" as="geometry" />
        </mxCell>
        <mxCell id="48qMk-_mbrMQJ_Q1BjIE-72" value="" style="rounded=0;whiteSpace=wrap;html=1;fontFamily=Verdana;fontSize=16;fillColor=#dae8fc;strokeColor=#6c8ebf;" vertex="1" parent="1">
          <mxGeometry x="890" y="120" width="140" height="90" as="geometry" />
        </mxCell>
        <mxCell id="48qMk-_mbrMQJ_Q1BjIE-75" value="&lt;font style=&quot;font-size: 19px&quot;&gt;Deployed&lt;/font&gt;" style="text;html=1;strokeColor=none;fillColor=none;align=center;verticalAlign=middle;whiteSpace=wrap;rounded=0;fontFamily=Times New Roman;fontSize=16;" vertex="1" parent="1">
          <mxGeometry x="940" y="155" width="40" height="20" as="geometry" />
        </mxCell>
      </root>
    </mxGraphModel>
  </diagram>
</mxfile>
